<?xml version="1.0" encoding="UTF-8"?><svg version="1.1" viewBox="0 0 420 238" xmlns="http://www.w3.org/2000/svg" xmlns:xlink="http://www.w3.org/1999/xlink"><!--Generated by IJSVG (https://github.com/iconjar/IJSVG)--><defs><linearGradient id="a" x1="366.479" x2="369.668" gradientUnits="userSpaceOnUse" y1="86.3828" y2="86.0669"><stop offset="0%" stop-color="#B0BACC"></stop><stop offset="100%" stop-color="#969EAE"></stop></linearGradient><linearGradient id="b" x1="396.479" x2="399.668" gradientUnits="userSpaceOnUse" y1="84.3828" y2="84.0669" xlink:href="#a"></linearGradient><linearGradient id="c" x1="402.479" x2="405.668" gradientUnits="userSpaceOnUse" y1="114.383" y2="114.067" xlink:href="#a"></linearGradient><linearGradient id="d" x1="413.479" x2="416.668" gradientUnits="userSpaceOnUse" y1="97.3828" y2="97.0669" xlink:href="#a"></linearGradient><linearGradient id="e" x1="380.479" x2="383.668" gradientUnits="userSpaceOnUse" y1="71.3828" y2="71.0669" xlink:href="#a"></linearGradient><linearGradient id="f" x1="380.725" x2="380.725" gradientUnits="userSpaceOnUse" y1="101.662" y2="109.198" xlink:href="#a"></linearGradient><linearGradient id="g" x1="114.554" x2="117.329" gradientUnits="userSpaceOnUse" y1="23.5258" y2="25.1277" xlink:href="#a"></linearGradient><linearGradient id="h" x1="100.599" x2="103.374" gradientUnits="userSpaceOnUse" y1="51.5704" y2="53.1724" xlink:href="#a"></linearGradient><linearGradient id="i" x1="143.599" x2="146.374" gradientUnits="userSpaceOnUse" y1="36.5704" y2="38.1724" xlink:href="#a"></linearGradient><linearGradient id="j" x1="129.599" x2="132.374" gradientUnits="userSpaceOnUse" y1="65.5704" y2="67.1724" xlink:href="#a"></linearGradient><linearGradient id="k" x1="108.266" x2="111.776" gradientUnits="userSpaceOnUse" y1="73.2519" y2="75.2786" xlink:href="#a"></linearGradient><linearGradient id="l" x1="151.023" x2="154.533" gradientUnits="userSpaceOnUse" y1="57.2519" y2="59.2786" xlink:href="#a"></linearGradient><linearGradient id="m" x1="136.023" x2="139.533" gradientUnits="userSpaceOnUse" y1="15.2522" y2="17.2788" xlink:href="#a"></linearGradient><linearGradient id="n" x1="93.0228" x2="96.533" gradientUnits="userSpaceOnUse" y1="31.2522" y2="33.2788" xlink:href="#a"></linearGradient><linearGradient id="o" x1="130.953" x2="130.953" gradientUnits="userSpaceOnUse" y1="43.8922" y2="50.5372" xlink:href="#a"></linearGradient><linearGradient id="p" x1="84.8263" x2="84.8263" gradientUnits="userSpaceOnUse" y1="139.498" y2="158.251" xlink:href="#a"></linearGradient><linearGradient id="q" x1="102.89" x2="102.89" gradientUnits="userSpaceOnUse" y1="138.493" y2="148.903" xlink:href="#a"></linearGradient><linearGradient id="r" x1="64.8889" x2="64.8889" gradientUnits="userSpaceOnUse" y1="141.163" y2="143.132" xlink:href="#a"></linearGradient><linearGradient id="s" x1="82.1654" x2="82.1654" gradientUnits="userSpaceOnUse" y1="165.265" y2="188.022" xlink:href="#a"></linearGradient><linearGradient id="t" x1="108.947" x2="108.947" gradientUnits="userSpaceOnUse" y1="165.615" y2="205.191"><stop offset="0%" stop-color="#FDFEFF"></stop><stop offset="99.64%" stop-color="#ECF0F5"></stop></linearGradient><linearGradient id="u" x1="111.045" x2="111.045" gradientUnits="userSpaceOnUse" y1="173.693" y2="204.437" xlink:href="#t"></linearGradient><linearGradient id="v" x1="112.179" x2="112.179" gradientUnits="userSpaceOnUse" y1="185.154" y2="204.942" xlink:href="#t"></linearGradient><linearGradient id="w" x1="318.188" x2="318.188" gradientUnits="userSpaceOnUse" y1="160.577" y2="174.052" xlink:href="#a"></linearGradient><linearGradient id="x" x1="196.11" x2="196.11" gradientUnits="userSpaceOnUse" y1="85.0222" y2="149.333" xlink:href="#t"></linearGradient><linearGradient id="y" x1="159.964" x2="232.496" gradientUnits="userSpaceOnUse" y1="92.4316" y2="90.6284"><stop offset="0%" stop-color="#D5DDEA"></stop><stop offset="100%" stop-color="#D5DDEA" stop-opacity="0"></stop></linearGradient><linearGradient id="z" x1="183.459" x2="183.459" gradientUnits="userSpaceOnUse" y1="105.798" y2="109.002" xlink:href="#a"></linearGradient><linearGradient id="A" x1="207.718" x2="207.718" gradientUnits="userSpaceOnUse" y1="105.798" y2="109.002" xlink:href="#a"></linearGradient><linearGradient id="B" x1="183.459" x2="183.459" gradientUnits="userSpaceOnUse" y1="130.477" y2="133.681" xlink:href="#a"></linearGradient><linearGradient id="C" x1="206.544" x2="206.544" gradientUnits="userSpaceOnUse" y1="125.295" y2="132.928" xlink:href="#a"></linearGradient><linearGradient id="D" x1="318.691" x2="318.691" gradientUnits="userSpaceOnUse" y1="141.679" y2="144.129" xlink:href="#a"></linearGradient><linearGradient id="E" x1="325.271" x2="325.271" gradientUnits="userSpaceOnUse" y1="105.407" y2="123.567" xlink:href="#a"></linearGradient><linearGradient id="F" x1="200.439" x2="200.439" gradientUnits="userSpaceOnUse" y1="60.3858" y2="64.2729" xlink:href="#a"></linearGradient><linearGradient id="G" x1="205.506" x2="205.506" gradientUnits="userSpaceOnUse" y1="47.8854" y2="52.5663" xlink:href="#a"></linearGradient><linearGradient id="H" x1="246.062" x2="246.062" gradientUnits="userSpaceOnUse" y1="154.412" y2="180.85" xlink:href="#a"></linearGradient><linearGradient id="I" x1="240.121" x2="240.121" gradientUnits="userSpaceOnUse" y1="197.89" y2="201.659" xlink:href="#a"></linearGradient></defs><path d="M235.251,205.317c-9.821,0.335 -21.489,0 -29.883,-0.084c-8.227,0.335 -20.147,0.419 -29.884,0.084c9.653,-5.457 13.095,-15.698 13.599,-22.329h32.485c0.756,6.547 4.114,16.872 13.683,22.329Z" fill="#D5DDEA"></path><path fill="#FFF" d="M266.646,96.702v84.111c0,2.098 -1.679,3.777 -3.526,3.777h-114.918c-2.014,0 -3.525,-1.679 -3.525,-3.777v-84.111c0,-2.0146 1.679,-3.7774 3.525,-3.7774h114.75c2.183,0.1678 3.694,1.8467 3.694,3.7774Z"></path><path d="M267,96.7074v73.2926h-122v-73.2926c0,-1.9963 1.708,-3.7074 3.559,-3.7074h114.74c2.135,0 3.701,1.7111 3.701,3.7074Z" fill="#989FB0"></path><path fill="#FFF" d="M262.857,98h-113.857v68h114v-68h-0.143Z"></path><g fill="#D6DDE8"><path d="M205.535,179.553c1.679,0 3.022,-1.259 3.022,-3.022c0,-1.678 -1.259,-3.021 -3.022,-3.021c-1.679,0 -3.022,1.259 -3.022,3.021c0,1.679 1.259,3.022 3.022,3.022Z"></path><path fill-rule="evenodd" d="M22.4707,206.569c0,-1.105 0.8954,-2 2,-2h383.618c1.105,0 2,0.895 2,2c0,1.104 -0.895,2 -2,2h-383.618c-1.1046,0 -2,-0.896 -2,-2Z"></path></g><path fill="#F1F3FA" d="M280.16,143.29c3.022,0 5.457,-2.434 5.457,-5.456c0,-3.022 -2.435,-5.456 -5.457,-5.456c-3.022,0 -5.456,2.434 -5.456,5.456c0.084,3.022 2.434,5.456 5.456,5.456Z"></path><path d="M387.104,108.202c0.252,-0.252 0.42,-0.42 0.504,-0.504c0,0 0.587,-0.503 0.587,-0.587l0.42,-0.336c0.336,-0.168 0.924,-0.755 1.931,-1.007c1.679,-0.504 2.686,0 3.274,-0.084c0.084,0 0.251,-0.084 0.251,-0.084c0.168,-0.084 0.336,-0.168 0.336,-0.168c0.504,-0.42 0.336,-0.42 3.022,-17.8799l0.084,-0.4197c0.084,-0.5037 -0.336,-0.8394 -0.839,-0.8394h-0.084h-0.084l-0.588,0.2518l-6.547,2.854l-0.168,0.084c-11.92,5.2044 -10.157,3.7774 -9.402,7.1351c0.168,0.4197 0.42,1.9307 -0.084,3.3577c-0.168,0.5874 -0.503,1.0914 -1.007,1.9304l8.394,6.296Zm-1.679,-6.296c-1.091,-0.839 -1.343,-2.434 -0.503,-3.6092c0.839,-1.0913 2.434,-1.3431 3.525,-0.5037c1.092,0.8395 1.343,2.4339 0.504,3.5259c-0.839,1.175 -2.434,1.427 -3.526,0.587Z" fill="#DBDFE9"></path><path fill="#FFF" fill-rule="evenodd" d="M397.115,86.6754c0.438,0.3366 0.52,0.9644 0.183,1.4023l-7.806,10.1571c-0.337,0.4379 -0.965,0.52 -1.403,0.1835c-0.438,-0.3366 -0.52,-0.9644 -0.183,-1.4023l7.807,-10.1571c0.336,-0.4379 0.964,-0.52 1.402,-0.1835Z"></path><path d="M399.612,86.6289c6.463,5.7081 10.073,14.8581 7.303,24.6791m-35.676,-27.5332c8.646,-5.1205 18.215,-4.1132 25.351,0.5037m1.007,-1.4271l-13.767,-10.5767m30.723,23.5879l-13.766,-10.5768m15.529,10.1571c0.336,0 0.672,0.0839 1.007,0.3357c0.756,0.5876 0.924,1.6789 0.336,2.4344c-0.587,0.7555 -1.679,0.9234 -2.434,0.3358c-0.336,-0.2519 -0.504,-0.5876 -0.588,-0.9234c-0.168,-0.5037 -0.084,-1.0913 0.252,-1.511c0.336,-0.5036 0.924,-0.7555 1.427,-0.6715Zm-34.081,-26.1902c0.336,0 0.672,0.084 1.008,0.3358c0.755,0.5876 0.923,1.6789 0.335,2.4343c-0.587,0.7555 -1.678,0.9234 -2.434,0.3358c-0.336,-0.2518 -0.504,-0.5876 -0.587,-0.9234c-0.168,-0.5036 -0.084,-1.0912 0.251,-1.5109c0.336,-0.5037 0.924,-0.7555 1.427,-0.6716Zm21.742,46.2523l-0.42,-3.358l2.266,-0.335l1.092,-0.168l0.335,2.686l0.084,0.588l-3.357,0.587Zm-36.012,-27.617l-0.42,-3.3577l2.267,-0.3358l1.091,-0.1679l0.336,2.6862l0.084,0.5876l-3.358,0.5876Zm29.128,-1.2591l-0.419,-3.3577l2.266,-0.3358l1.091,-0.1679l0.336,2.6862l0.084,0.5876l-3.358,0.5876Z" stroke-linecap="round" stroke-width="2" stroke="#D6DDE8" fill="none" stroke-linejoin="round"></path><path fill="url(#a)" d="M366.099,84.5578l0.366,3.69c0.054,0.5496 0.544,0.951 1.094,0.8965l3.69,-0.3655c0.549,-0.0545 0.951,-0.5442 0.896,-1.0938l-0.365,-3.69c-0.055,-0.5496 -0.544,-0.951 -1.094,-0.8965l-3.69,0.3655c-0.55,0.0545 -0.951,0.5442 -0.897,1.0938Z"></path><path d="M396.099,82.5578l0.366,3.69c0.054,0.5496 0.544,0.951 1.094,0.8965l3.69,-0.3655c0.549,-0.0545 0.951,-0.5442 0.896,-1.0938l-0.365,-3.69c-0.055,-0.5496 -0.544,-0.951 -1.094,-0.8965l-3.69,0.3655c-0.55,0.0545 -0.951,0.5442 -0.897,1.0938Z" fill="url(#b)"></path><path fill="url(#c)" d="M402.099,112.558l0.366,3.69c0.054,0.549 0.544,0.951 1.094,0.896l3.69,-0.365c0.549,-0.055 0.951,-0.544 0.896,-1.094l-0.365,-3.69c-0.055,-0.55 -0.544,-0.951 -1.094,-0.897l-3.69,0.366c-0.55,0.054 -0.951,0.544 -0.897,1.094Z"></path><path d="M416.404,99.9615c1.568,-0.1554 2.714,-1.5529 2.558,-3.1215c-0.155,-1.5685 -1.553,-2.7141 -3.121,-2.5587c-1.569,0.1554 -2.714,1.5529 -2.559,3.1215c0.156,1.5685 1.553,2.7142 3.122,2.5587Z" fill="url(#d)"></path><path fill="url(#e)" d="M383.404,73.9615c1.568,-0.1554 2.714,-1.5529 2.558,-3.1215c-0.155,-1.5685 -1.553,-2.7141 -3.121,-2.5587c-1.569,0.1554 -2.714,1.5529 -2.559,3.1215c0.156,1.5685 1.553,2.7141 3.122,2.5587Z"></path><path d="M381.312,112.819l-7.555,-5.792c-0.42,-0.336 -0.504,-0.923 -0.168,-1.343l1.511,-2.015l1.259,-1.595l0.336,-0.503c0.336,-0.42 0.923,-0.504 1.343,-0.168l9.653,7.471c0.42,0.335 0.504,0.923 0.168,1.343l-3.106,4.029c-0.335,0.42 -0.923,0.504 -1.343,0.168l-0.335,-0.252l-1.763,-1.343Z" fill="url(#f)"></path><path fill="#DBDFE9" d="M74.5839,105.936l-26.5259,-6.6317c-0.5037,-0.0839 -0.9234,-0.4197 -1.2592,-0.7554l-3.3577,-3.4417l-2.0146,-2.0986c-0.4197,-0.4197 -0.2518,-1.1752 0.3358,-1.3431l2.7701,-0.8394l4.6168,-1.427c0.5037,-0.1679 1.0074,-0.1679 1.511,-0.084l26.5259,6.6315c1.0073,0.2519 1.5949,1.2592 1.3431,2.2665l-1.5949,6.3799c-0.3358,0.923 -1.3431,1.595 -2.3504,1.343Z"></path><path d="M74.5843,105.936l-4.1971,-1.092l2.5183,-9.9888l4.1971,1.0913c1.0073,0.2518 1.5949,1.2591 1.3431,2.2664l-1.5949,6.3801c-0.2518,0.923 -1.2591,1.594 -2.2665,1.343Z" fill="#9EA9BC"></path><path fill="#9AA6BA" d="M43.3576,95.107l-2.0146,-2.0986c-0.4197,-0.4197 -0.2518,-1.1752 0.3358,-1.343l2.7701,-0.8395l-1.0913,4.2811Z"></path><g stroke-width="2" fill="none" stroke="#C1C9D6"><path d="M70.6389,94.2678l-2.5183,10.0732"></path><path d="M50.157,89.1472l-2.5183,9.9892"></path><path d="M69.7995,97.4577l-20.3981,-5.1205"></path><path d="M68.9605,100.899l-20.482,-5.1202"></path><path stroke="#D6DDE8" d="M145.525,38.0951l-28.684,-13.7628l-13.763,28.6838l28.684,13.7628l13.763,-28.6838Z"></path><path fill="#F1F3FA" stroke="#D6DDE8" d="M129.483,67.8257l-16.705,5.876l16.705,-5.876Zm21.657,-7.6388l-16.956,5.9599l16.956,-5.9599Zm0.588,-1.8468c0.252,-0.3357 0.503,-0.5876 0.923,-0.6715c0.924,-0.3358 2.015,0.1679 2.351,1.0912c0.335,0.9234 -0.168,2.0147 -1.092,2.3504c-0.419,0.1679 -0.755,0.1679 -1.175,0c-0.504,-0.1678 -1.007,-0.5876 -1.175,-1.1752c-0.252,-0.5036 -0.168,-1.0912 0.168,-1.5949Zm-42.475,15.0258c0.252,-0.3358 0.503,-0.5876 0.923,-0.6716c0.924,-0.3357 2.015,0.1679 2.351,1.0913c0.335,0.9234 -0.168,2.0146 -1.092,2.3504c-0.419,0.1679 -0.755,0.1679 -1.175,0c-0.504,-0.1679 -1.007,-0.5876 -1.175,-1.1752c-0.252,-0.5876 -0.168,-1.1752 0.168,-1.5949Zm23.42,-4.0293l-3.19,-1.5109l1.007,-2.1826l0.504,-1.0073l2.602,1.2592l0.588,0.2518l-1.511,3.1898Z"></path></g><path fill="#F1F3FA" d="M137.037,16.4529c0.252,-0.3358 0.504,-0.5876 0.924,-0.6715c0.923,-0.3358 2.014,0.1679 2.35,1.0912c0.336,0.9234 -0.168,2.0147 -1.091,2.3504c-0.42,0.1679 -0.756,0.1679 -1.175,0c-0.504,-0.1679 -1.008,-0.5876 -1.176,-1.1752c-0.251,-0.5876 -0.167,-1.1752 0.168,-1.5949Zm-42.5586,14.9418c0.2518,-0.3357 0.5036,-0.5876 0.9233,-0.6715c0.9234,-0.3358 2.0147,0.1679 2.3504,1.0912c0.3358,0.9234 -0.1678,2.0147 -1.0912,2.3504c-0.4197,0.1679 -0.7555,0.1679 -1.1752,0c-0.5037,-0.1678 -1.0073,-0.5876 -1.1752,-1.1752c-0.2518,-0.5876 -0.1679,-1.1752 0.1679,-1.5949Zm23.5036,-4.0292l-3.189,-1.511l1.007,-2.1825l0.503,-1.0073l2.603,1.2591l0.587,0.2518l-1.511,3.1899Zm-13.934,28.1208l-3.19,-1.511l1.007,-2.1825l0.504,-1.0073l2.602,1.2591l0.588,0.2519l-1.511,3.1898Zm44.154,-18.1316l-1.511,3.1898l-2.183,-1.0073l-1.007,-0.5037l1.259,-2.6022l0.252,-0.5876l3.19,1.511Z"></path><path d="M114.793,25.8545l-16.7051,5.876m16.7051,-5.876l3.189,1.511l1.511,-3.1899l-0.587,-0.2518l-2.603,-1.2591l-0.503,1.0073l-1.007,2.1825Zm21.573,-7.5548l-16.957,5.9599m17.628,-7.8067c0.252,-0.3358 0.504,-0.5876 0.924,-0.6715c0.923,-0.3358 2.014,0.1679 2.35,1.0912c0.336,0.9234 -0.168,2.0147 -1.091,2.3504c-0.42,0.1679 -0.756,0.1679 -1.175,0c-0.504,-0.1679 -1.008,-0.5876 -1.176,-1.1752c-0.251,-0.5876 -0.167,-1.1752 0.168,-1.5949Zm-42.5586,14.9418c0.2518,-0.3357 0.5036,-0.5876 0.9233,-0.6715c0.9234,-0.3358 2.0147,0.1679 2.3504,1.0912c0.3358,0.9234 -0.1678,2.0147 -1.0912,2.3504c-0.4197,0.1679 -0.7555,0.1679 -1.1752,0c-0.5037,-0.1678 -1.0073,-0.5876 -1.1752,-1.1752c-0.2518,-0.5876 -0.1679,-1.1752 0.1679,-1.5949Zm9.5696,24.0916l-3.19,-1.511l1.007,-2.1825l0.504,-1.0073l2.602,1.2591l0.588,0.2519l-1.511,3.1898Zm44.154,-18.1316l-1.511,3.1898l-2.183,-1.0073l-1.007,-0.5037l1.259,-2.6022l0.252,-0.5876l3.19,1.511Z" stroke-width="2" fill="none" stroke="#D6DDE8"></path><path fill="url(#g)" d="M115.309,21.8213l-1.854,3.2114c-0.276,0.4782 -0.112,1.0898 0.366,1.366l3.211,1.854c0.479,0.2762 1.09,0.1123 1.366,-0.366l1.854,-3.2113c0.277,-0.4783 0.113,-1.0899 -0.366,-1.366l-3.211,-1.8541c-0.478,-0.2761 -1.09,-0.1122 -1.366,0.366Z"></path><path d="M101.354,49.866l-1.854,3.2113c-0.2761,0.4783 -0.1123,1.0899 0.366,1.3661l3.211,1.854c0.479,0.2762 1.09,0.1123 1.366,-0.366l1.854,-3.2113c0.277,-0.4783 0.113,-1.0899 -0.366,-1.366l-3.211,-1.8541c-0.478,-0.2761 -1.09,-0.1123 -1.366,0.366Z" fill="url(#h)"></path><path fill="url(#i)" d="M144.354,34.866l-1.854,3.2113c-0.276,0.4783 -0.112,1.0899 0.366,1.3661l3.211,1.854c0.479,0.2762 1.09,0.1123 1.366,-0.366l1.854,-3.2113c0.277,-0.4783 0.113,-1.0899 -0.366,-1.366l-3.211,-1.8541c-0.478,-0.2761 -1.09,-0.1123 -1.366,0.366Z"></path><path d="M130.354,63.866l-1.854,3.2113c-0.276,0.4783 -0.112,1.0899 0.366,1.3661l3.211,1.854c0.479,0.2762 1.09,0.1123 1.366,-0.366l1.854,-3.2113c0.277,-0.4783 0.113,-1.0899 -0.366,-1.366l-3.211,-1.8541c-0.478,-0.2761 -1.09,-0.1123 -1.366,0.366Z" fill="url(#j)"></path><path fill="url(#k)" d="M109.37,78.0592c1.727,0.9971 3.935,0.4054 4.932,-1.3216c0.997,-1.7269 0.406,-3.9351 -1.321,-4.9322c-1.727,-0.997 -3.935,-0.4053 -4.933,1.3216c-0.997,1.7269 -0.405,3.9352 1.322,4.9322Z"></path><path d="M152.127,62.0592c1.727,0.9971 3.935,0.4054 4.932,-1.3216c0.997,-1.7269 0.405,-3.9351 -1.321,-4.9322c-1.727,-0.997 -3.936,-0.4053 -4.933,1.3216c-0.997,1.7269 -0.405,3.9352 1.322,4.9322Z" fill="url(#l)"></path><path fill="url(#m)" d="M137.127,20.0595c1.727,0.997 3.935,0.4053 4.932,-1.3216c0.997,-1.7269 0.405,-3.9352 -1.321,-4.9322c-1.727,-0.9971 -3.936,-0.4054 -4.933,1.3216c-0.997,1.7269 -0.405,3.9351 1.322,4.9322Z"></path><path d="M94.1269,36.0595c1.7269,0.997 3.9352,0.4053 4.9322,-1.3216c0.9969,-1.7269 0.4054,-3.9352 -1.3216,-4.9322c-1.7269,-0.9971 -3.9351,-0.4054 -4.9322,1.3216c-0.997,1.7269 -0.4053,3.9351 1.3216,4.9322Z" fill="url(#n)"></path><path fill="#EDF0F8" d="M125.37,48.1832l-9.486,3.3577c-0.504,0.1679 -1.007,-0.0839 -1.175,-0.5876l-3.358,-9.4855c-0.168,-0.5037 0.084,-1.0074 0.588,-1.1752l9.485,-3.3577c0.504,-0.1679 1.008,0.0839 1.175,0.5876l3.358,9.4855c0.168,0.5036 -0.084,1.0073 -0.587,1.1752Z"></path><path d="M131.329,49.946l-5.54,3.5256c-1.259,0.7555 -2.854,0.4198 -3.693,-0.8394l-3.526,-5.5402c-0.756,-1.2591 -0.42,-2.8541 0.839,-3.6935l5.541,-3.5256c1.259,-0.7555 2.854,-0.4197 3.693,0.8394l3.526,5.5403c0.755,1.2591 0.335,2.938 -0.84,3.6934Z" fill="#DBDFE9"></path><path fill="url(#o)" d="M136.282,51.9606c-1.427,2.938 -4.953,4.1971 -7.891,2.7701c-2.938,-1.427 -4.197,-4.9526 -2.77,-7.8906c1.427,-2.938 4.953,-4.1971 7.891,-2.7701c2.938,1.3431 4.197,4.8687 2.77,7.8906Z"></path><path d="M90.3656,138.338h-11.0804v33.409h11.0804v-33.409Z" fill="url(#p)"></path><path fill="none" stroke="#FFF" stroke-linecap="round" stroke-linejoin="round" stroke-width="2" d="M90.3654,144.129h-4.5329"></path><g stroke-linecap="round" stroke-width="2" stroke="#FFF" fill="none" stroke-linejoin="round"><path d="M90.3654,149.922h-4.5329"></path><path d="M90.3654,155.798h-4.5329"></path><path d="M90.3654,161.59h-4.5329"></path><path fill="#F1F3FA" stroke="#D6DDE8" d="M104.636,155.378l-2.099,-4.113l-0.252,0.419l0.084,-0.503l-4.2807,1.595c0,0 -5.6242,8.73 -10.1571,20.398c-2.5183,6.631 0.7555,6.295 4.1972,4.784c1.5109,3.358 3.6934,5.876 6.2957,-0.755c4.4489,-11.5 6.2119,-21.825 6.2119,-21.825Z"></path></g><path fill="url(#q)" d="M108.833,152.356c-1.259,3.274 -4.952,4.869 -8.226,3.61c-3.2737,-1.26 -4.8686,-4.953 -3.6094,-8.227c1.0073,-2.686 7.5544,-7.89 9.9054,-9.737c0.42,-0.336 1.007,-0.084 1.091,0.419c0.588,3.106 1.847,11.333 0.839,13.935Z"></path><path d="M70.8909,177.203l-9.0658,-26.274c-0.1679,-0.504 -0.1679,-1.007 -0.0839,-1.511l1.0912,-4.785l0.6716,-2.854c0.1679,-0.587 0.8394,-0.839 1.3431,-0.503l2.2664,1.846l3.7774,3.106c0.4198,0.336 0.6716,0.756 0.8395,1.259l9.0658,26.274c0.3358,1.008 -0.1679,2.099 -1.1752,2.435l-6.2957,2.182c-1.0913,0.336 -2.0986,-0.251 -2.4344,-1.175Z" fill="#DBDFE9"></path><path fill="#F1F3FA" stroke="#D6DDE8" stroke-width="2" d="M70.8909,177.203l-1.427,-4.197l9.9052,-3.442l1.427,4.198c0.3358,1.007 -0.1678,2.098 -1.1752,2.434l-6.2957,2.182c-1.0912,0.336 -2.0985,-0.251 -2.4343,-1.175Z"></path><path d="M62.748,144.549l0.6716,-2.854c0.1679,-0.587 0.8394,-0.839 1.3431,-0.503l2.2664,1.846l-4.2811,1.511Z" fill="url(#r)"></path><path fill="none" stroke="#D6DDE8" stroke-width="2" d="M78.5298,167.382l-9.9053,3.358"></path><g stroke-width="2" fill="none" stroke="#C1C9D6"><path d="M71.5625,147.152l-9.8213,3.357"></path><path d="M73.9965,169.061l-6.9672,-20.231"></path></g><path fill="url(#s)" d="M64.0078,163.856h41.6352c0,0 4.701,16.453 -9.9888,27.449c0,11.92 0,13.096 0,13.096h-21.3215v-8.898h-9.5695v-11.836l-6.7993,-1.679l5.9599,-10.661c-0.8394,-3.358 -0.6715,-4.953 0.084,-7.471Z"></path><path d="M72.4859,172.586c-2.6022,0 -4.7007,-2.098 -4.7007,-4.784h1.5949c0,1.762 1.427,3.189 3.1898,3.189c1.7628,0 3.1898,-1.427 3.1898,-3.189h1.5949c-0.0839,2.686 -2.2664,4.784 -4.8687,4.784Z" fill="#FFF"></path><path fill="url(#t)" d="M127.469,180.645l-23.504,23.504c-0.84,0.839 -2.183,0.839 -3.022,0l-10.4931,-10.493c-0.8394,-0.84 -0.8394,-2.183 0,-3.022l23.5041,-23.504c0.839,-0.84 2.182,-0.84 3.022,0l10.493,10.493c0.839,0.755 0.839,2.182 0,3.022Z"></path><path d="M127.469,180.645l-7.135,7.135l-13.515,-13.515l7.135,-7.135c0.839,-0.84 2.182,-0.84 3.022,0l10.493,10.493c0.839,0.755 0.839,2.182 0,3.022Z" fill="#A1A9BA"></path><path fill="url(#u)" d="M129.987,192.397l-31.1424,11.584c-1.0913,0.419 -2.3504,-0.168 -2.7702,-1.259l-5.2044,-13.851c-0.4197,-1.091 0.1679,-2.35 1.2591,-2.77l31.1429,-11.584c1.091,-0.42 2.35,0.168 2.77,1.259l5.204,13.85c0.42,1.176 -0.167,2.351 -1.259,2.771Z"></path><path d="M129.987,192.397l-9.401,3.525l-6.632,-17.88l9.402,-3.525c1.091,-0.42 2.35,0.168 2.77,1.259l5.204,13.85c0.336,1.176 -0.252,2.351 -1.343,2.771Z" fill="#FFF"></path><path fill="#DBDFE9" d="M113.931,178.028l-11.88,4.419l6.672,17.939l11.88,-4.419l-6.672,-17.939Z"></path><path d="M128.812,204.736h-33.2418c-1.1752,0 -2.1825,-1.007 -2.1825,-2.182v-14.774c0,-1.176 0.9234,-2.183 2.1825,-2.183h33.2418c1.175,0 2.182,0.924 2.182,2.183v14.774c-0.084,1.175 -1.007,2.182 -2.182,2.182Z" fill="url(#v)"></path><path fill="#A1A9BA" d="M128.811,204.736h-10.073v-19.139h10.073c1.176,0 2.183,0.924 2.183,2.183v14.774c-0.084,1.175 -1.007,2.182 -2.183,2.182Z"></path><path d="M118.738,185.597h-12.675v19.139h12.675v-19.139Z" fill="#DBDFE9"></path><path fill="#FFF" stroke="#D6DDE8" stroke-width="2" d="M99.5999,197.265c1.3441,0 2.4341,-1.09 2.4341,-2.434c0,-1.345 -1.09,-2.435 -2.4341,-2.435c-1.3445,0 -2.4344,1.09 -2.4344,2.435c0,1.344 1.0899,2.434 2.4344,2.434Z"></path><path d="M328.26,204.569h-29.464c-3.609,0 -6.547,-2.938 -6.547,-6.548v-38.278h42.559v38.278c0,3.61 -2.938,6.548 -6.548,6.548Z" fill="#DBDFE9"></path><path fill="url(#w)" d="M329.099,159.743v13.347c0,1.175 -1.007,2.183 -2.182,2.183c-1.176,0 -2.183,-1.008 -2.183,-2.183v-8.562c0,-1.175 -1.007,-2.183 -2.182,-2.183c-1.176,0 -2.183,1.008 -2.183,2.183v4.785c0,1.175 -1.007,2.182 -2.183,2.182c-1.175,0 -2.182,-1.007 -2.182,-2.182v-0.588c0,-1.175 -1.007,-2.182 -2.183,-2.182c-1.175,0 -2.182,1.007 -2.182,2.182v12.843c0,1.175 -1.007,2.183 -2.183,2.183c-1.175,0 -2.182,-1.008 -2.182,-2.183v-21.825h21.825Z"></path><path d="M286.887,166.123c0,-0.829 0.671,-1.5 1.5,-1.5h3.861c0.829,0 1.5,0.671 1.5,1.5c0,0.828 -0.671,1.5 -1.5,1.5h-2.314c0.775,12.325 11.033,22.099 23.552,22.099c12.518,0 22.776,-9.774 23.551,-22.099h-2.146c-0.828,0 -1.5,-0.672 -1.5,-1.5c0,-0.829 0.672,-1.5 1.5,-1.5h3.693c0.829,0 1.5,0.671 1.5,1.5c0,14.679 -11.919,26.599 -26.598,26.599c-14.679,0 -26.599,-11.92 -26.599,-26.599Z" fill="#C7CEDD" fill-rule="evenodd"></path><path fill="#D6DCE8" stroke="#AAB2C5" stroke-linejoin="round" stroke-width="2" d="M336.486,160.834h-45.581c-0.588,0 -1.092,-0.503 -1.092,-1.091c0,-0.587 0.504,-1.091 1.092,-1.091h45.581c0.587,0 1.091,0.504 1.091,1.091c0,0.588 -0.504,1.091 -1.091,1.091Z"></path><path d="M229.627,148.663h-66.986c-3.106,0 -5.54,-2.519 -5.54,-5.541v-51.1208c0,-3.1059 2.518,-5.5403 5.54,-5.5403h66.986c3.106,0 5.54,2.5183 5.54,5.5403v51.1208c0.084,3.022 -2.434,5.541 -5.54,5.541Z" fill="url(#x)"></path><path fill="url(#y)" d="M235,94h-78v-4.9467c0,-1.6793 1.072,-3.0533 2.382,-3.0533h73.236c1.31,0 2.382,1.374 2.382,3.0533v4.9467Z"></path><g fill="#FFF"><path d="M161,91c0.556,0 1,-0.3889 1,-1c0,-0.5556 -0.389,-1 -1,-1c-0.556,0 -1,0.3889 -1,1c0,0.5556 0.444,1 1,1Z"></path><path d="M164,91c0.556,0 1,-0.3889 1,-1c0,-0.5556 -0.389,-1 -1,-1c-0.556,0 -1,0.3889 -1,1c0,0.5556 0.389,1 1,1Z"></path><path d="M167,91c0.556,0 1,-0.3889 1,-1c0,-0.5556 -0.389,-1 -1,-1c-0.556,0 -1,0.3889 -1,1c0,0.5556 0.444,1 1,1Z"></path></g><path fill="none" stroke="#D6DDE8" stroke-linecap="round" stroke-linejoin="round" stroke-width="2" d="M207.717,108.454h-24.259v24.763h24.259v-24.763Z"></path><path d="M185.312,105.6h-3.708c-0.552,0 -1,0.448 -1,1v3.708c0,0.552 0.448,1 1,1h3.708c0.552,0 1,-0.448 1,-1v-3.708c0,-0.552 -0.448,-1 -1,-1Z" fill="url(#z)"></path><path fill="url(#A)" d="M209.571,105.6h-3.708c-0.552,0 -1,0.448 -1,1v3.708c0,0.552 0.448,1 1,1h3.708c0.553,0 1,-0.448 1,-1v-3.708c0,-0.552 -0.447,-1 -1,-1Z"></path><path d="M185.312,130.279h-3.708c-0.552,0 -1,0.448 -1,1v3.708c0,0.552 0.448,1 1,1h3.708c0.552,0 1,-0.448 1,-1v-3.708c0,-0.552 -0.448,-1 -1,-1Z" fill="url(#B)"></path><path fill="url(#C)" d="M200.29,126.716c-0.26,-0.781 0.482,-1.525 1.263,-1.266l9.518,3.154c0.843,0.279 0.931,1.436 0.141,1.839l-0.604,0.309c-0.601,0.306 -0.732,1.108 -0.26,1.59l2.385,2.434c0.384,0.392 0.381,1.02 -0.007,1.407l-1.531,1.531c-0.391,0.391 -1.024,0.391 -1.414,0l-2.33,-2.329c-0.461,-0.461 -1.233,-0.365 -1.566,0.195l-0.576,0.966c-0.438,0.735 -1.537,0.616 -1.807,-0.196l-3.212,-9.634Z"></path><g fill="#D6DDE8"><path d="M154.918,23.9237h-0.672c-1.091,0 -1.931,-0.8394 -1.931,-1.9306v-0.6716c0,-0.8394 -0.671,-1.511 -1.511,-1.511c-0.839,0 -1.511,0.6716 -1.511,1.511v0.6716c0,1.0912 -0.839,1.9306 -1.93,1.9306h-0.672c-0.839,0 -1.511,0.6716 -1.511,1.511c0,0.8394 0.672,1.511 1.511,1.511h0.672c1.091,0 1.93,0.8394 1.93,1.9307v0.6715c0,0.8394 0.672,1.511 1.511,1.511c0.84,0 1.511,-0.6716 1.511,-1.511v-0.6715c0,-1.0913 0.84,-1.9307 1.931,-1.9307h0.672c0.839,0 1.511,-0.6716 1.511,-1.511c0,-0.8394 -0.672,-1.511 -1.511,-1.511Z"></path><path d="M100.271,87.9719h-0.5877c-0.8395,0 -1.5949,-0.6715 -1.5949,-1.5949v-0.5876c0,-0.6715 -0.5876,-1.2591 -1.2592,-1.2591c-0.6715,0 -1.2591,0.5876 -1.2591,1.2591v0.5876c0,0.8394 -0.6716,1.5949 -1.5949,1.5949h-0.5876c-0.6716,0 -1.2592,0.5876 -1.2592,1.2592c0,0.6715 0.5876,1.2591 1.2592,1.2591h0.5876c0.8394,0 1.5949,0.6716 1.5949,1.5949v0.5876c0,0.6716 0.5876,1.2592 1.2591,1.2592c0.6716,0 1.2592,-0.5876 1.2592,-1.2592v-0.5876c0,-0.8394 0.6715,-1.5949 1.5949,-1.5949h0.5877c0.671,0 1.259,-0.5876 1.259,-1.2591c0,-0.6716 -0.504,-1.2592 -1.259,-1.2592Z"></path><path d="M211.076,3.35771h-0.588c-0.839,0 -1.595,-0.67154 -1.595,-1.59491v-0.50366c0,-0.671541 -0.588,-1.25914 -1.259,-1.25914c-0.672,0 -1.259,0.587599 -1.259,1.25914v0.5876c0,0.83943 -0.672,1.59491 -1.595,1.59491h-0.588c-0.671,0 -1.259,0.5876 -1.259,1.25915c0,0.67154 0.588,1.25914 1.259,1.25914h0.588c0.839,0 1.595,0.67154 1.595,1.59491v0.5876c0,0.67154 0.587,1.25914 1.259,1.25914c0.671,0 1.259,-0.5876 1.259,-1.25914v-0.75549c0,-0.83942 0.672,-1.59491 1.595,-1.59491h0.588c0.671,0 1.259,-0.5876 1.259,-1.25914c0,-0.5876 -0.588,-1.1752 -1.259,-1.1752Z"></path><path d="M375.603,33.745h-0.671c-1.092,0 -1.931,-0.8394 -1.931,-1.9307v-0.6715c0,-0.8394 -0.672,-1.511 -1.511,-1.511c-0.84,0 -1.511,0.6716 -1.511,1.511v0.6715c0,1.0913 -0.84,1.9307 -1.931,1.9307h-0.671c-0.84,0 -1.511,0.6716 -1.511,1.511c0,0.8394 0.671,1.511 1.511,1.511h0.671c1.091,0 1.931,0.8394 1.931,1.9307v0.6715c0,0.8394 0.671,1.511 1.511,1.511c0.839,0 1.511,-0.6716 1.511,-1.511v-0.6715c0,-1.0913 0.839,-1.9307 1.931,-1.9307h0.671c0.84,0 1.511,-0.6716 1.511,-1.511c0,-0.8394 -0.671,-1.511 -1.511,-1.511Z"></path><path d="M359.99,131.622h-0.672c-1.091,0 -1.93,-0.839 -1.93,-1.93v-0.672c0,-0.839 -0.672,-1.511 -1.511,-1.511c-0.84,0 -1.511,0.672 -1.511,1.511v0.672c0,1.091 -0.84,1.93 -1.931,1.93h-0.672c-0.839,0 -1.511,0.672 -1.511,1.511c0,0.84 0.672,1.511 1.511,1.511h0.672c1.091,0 1.931,0.84 1.931,1.931v0.671c0,0.84 0.671,1.511 1.511,1.511c0.839,0 1.511,-0.671 1.511,-1.511v-0.671c0,-1.091 0.839,-1.931 1.93,-1.931h0.672c0.839,0 1.511,-0.671 1.511,-1.511c0,-0.839 -0.672,-1.511 -1.511,-1.511Z"></path><path d="M402.465,159.911h-0.42c-0.671,0 -1.175,-0.504 -1.175,-1.175v-0.42c0,-0.503 -0.42,-0.923 -0.923,-0.923c-0.504,0 -0.924,0.42 -0.924,0.923v0.42c0,0.671 -0.503,1.175 -1.175,1.175h-0.42c-0.503,0 -0.923,0.42 -0.923,0.923c0,0.504 0.42,0.924 0.923,0.924h0.42c0.672,0 1.175,0.504 1.175,1.175v0.42c0,0.503 0.42,0.923 0.924,0.923c0.503,0 0.923,-0.42 0.923,-0.923v-0.42c0,-0.671 0.504,-1.175 1.175,-1.175h0.42c0.503,0 0.923,-0.42 0.923,-0.924c0,-0.503 -0.42,-0.923 -0.923,-0.923Z"></path><path d="M363.18,180.729h-0.336c-0.504,0 -0.923,-0.42 -0.923,-0.924v-0.335c0,-0.42 -0.336,-0.756 -0.756,-0.756c-0.42,0 -0.755,0.336 -0.755,0.756v0.335c0,0.504 -0.42,0.924 -0.924,0.924h-0.336c-0.419,0 -0.755,0.336 -0.755,0.755c0,0.42 0.336,0.756 0.755,0.756h0.336c0.504,0 0.924,0.419 0.924,0.923v0.336c0,0.42 0.335,0.755 0.755,0.755c0.42,0 0.756,-0.335 0.756,-0.755v-0.336c0,-0.504 0.419,-0.923 0.923,-0.923h0.336c0.419,0 0.755,-0.336 0.755,-0.756c-0.084,-0.419 -0.419,-0.755 -0.755,-0.755Z"></path><path d="M286.54,110.553h-0.336c-0.503,0 -0.923,-0.42 -0.923,-0.924v-0.335c0,-0.42 -0.336,-0.756 -0.756,-0.756c-0.419,0 -0.755,0.336 -0.755,0.756v0.335c0,0.504 -0.42,0.924 -0.923,0.924h-0.336c-0.42,0 -0.756,0.335 -0.756,0.755c0,0.42 0.336,0.756 0.756,0.756h0.336c0.503,0 0.923,0.419 0.923,0.923v0.336c0,0.42 0.336,0.755 0.755,0.755c0.42,0 0.756,-0.335 0.756,-0.755v-0.336c0,-0.504 0.42,-0.923 0.923,-0.923h0.336c0.42,0 0.756,-0.336 0.756,-0.756c0,-0.42 -0.336,-0.755 -0.756,-0.755Z"></path><path d="M28.9197,139.933h-0.4197c-0.6716,0 -1.2592,-0.588 -1.2592,-1.26v-0.419c0,-0.588 -0.4197,-1.008 -1.0073,-1.008c-0.5876,0 -1.0073,0.42 -1.0073,1.008v0.419c0,0.672 -0.5876,1.26 -1.2591,1.26h-0.4197c-0.5876,0 -1.0074,0.419 -1.0074,1.007c0,0.587 0.4198,1.007 1.0074,1.007h0.4197c0.6715,0 1.2591,0.588 1.2591,1.259v0.42c0,0.588 0.4197,1.007 1.0073,1.007c0.5876,0 1.0073,-0.419 1.0073,-1.007v-0.42c0,-0.671 0.5876,-1.259 1.2592,-1.259h0.4197c0.5876,0 1.0073,-0.42 1.0073,-1.007c0,-0.588 -0.4197,-1.007 -1.0073,-1.007Z"></path><path d="M6.00332,83.7748h-0.33577c-0.5876,0 -1.00731,-0.4197 -1.00731,-1.0073v-0.3358c0,-0.4197 -0.33577,-0.8394 -0.83943,-0.8394c-0.41971,0 -0.83943,0.3358 -0.83943,0.8394v0.3358c0,0.5876 -0.41971,1.0073 -1.00731,1.0073h-0.25183c-0.41971,0 -0.839428,0.3358 -0.839428,0.8394c0,0.4197 0.335768,0.8395 0.839428,0.8395h0.33577c0.5876,0 1.00731,0.4197 1.00731,1.0073v0.3357c0,0.4198 0.33578,0.8395 0.83943,0.8395c0.41972,0 0.83943,-0.3358 0.83943,-0.8395v-0.3357c0,-0.5876 0.41971,-1.0073 1.00731,-1.0073h0.33577c0.41972,0 0.83943,-0.3358 0.83943,-0.8395c-0.08394,-0.4197 -0.41971,-0.8394 -0.92337,-0.8394Z"></path><path d="M52.3397,48.6029h-0.3358c-0.5876,0 -1.0073,-0.4197 -1.0073,-1.0073v-0.3358c0,-0.4197 -0.3357,-0.8394 -0.8394,-0.8394c-0.4197,0 -0.8394,0.3358 -0.8394,0.8394v0.3358c0,0.5876 -0.4197,1.0073 -1.0073,1.0073h-0.3358c-0.4197,0 -0.8394,0.3358 -0.8394,0.8395c0,0.4197 0.3357,0.8394 0.8394,0.8394h0.3358c0.5876,0 1.0073,0.4197 1.0073,1.0073v0.3358c0,0.4197 0.3357,0.8394 0.8394,0.8394c0.4197,0 0.8394,-0.3358 0.8394,-0.8394v-0.4198c0,-0.5876 0.4197,-1.0073 1.0073,-1.0073h0.3358c0.4197,0 0.8394,-0.3357 0.8394,-0.8394c0,-0.4197 -0.4197,-0.7555 -0.8394,-0.7555Z"></path><path d="M233.404,27.7849c-2.602,0 -4.701,-2.0986 -4.701,-4.7008c0,-2.6022 2.099,-4.7008 4.701,-4.7008c2.602,0 4.701,2.0986 4.701,4.7008c0,2.6022 -2.099,4.7008 -4.701,4.7008Zm0,-6.7994c-1.175,0 -2.183,0.9234 -2.183,2.1825c0,1.2592 0.924,2.1826 2.183,2.1826c1.175,0 2.182,-0.9234 2.182,-2.1826c0,-1.2591 -1.007,-2.1825 -2.182,-2.1825Z"></path><path d="M94.5631,125.242c-2.6022,0 -4.7008,-2.098 -4.7008,-4.7c0,-2.603 2.0986,-4.701 4.7008,-4.701c2.6022,0 4.7008,2.098 4.7008,4.701c0,2.602 -2.1825,4.7 -4.7008,4.7Zm0,-6.883c-1.1752,0 -2.1825,0.923 -2.1825,2.183c0,1.259 0.9234,2.182 2.1825,2.182c1.2591,0 2.1825,-0.923 2.1825,-2.182c0,-1.26 -1.0073,-2.183 -2.1825,-2.183Z"></path><path d="M307.526,70.344c-1.847,0 -3.442,-1.511 -3.442,-3.4417c0,-1.9306 1.511,-3.4416 3.442,-3.4416c1.846,0 3.441,1.511 3.441,3.4416c0,1.9307 -1.511,3.4417 -3.441,3.4417Zm0,-5.0366c-0.84,0 -1.595,0.6716 -1.595,1.5949c0,0.8395 0.671,1.595 1.595,1.595c0.839,0 1.595,-0.6716 1.595,-1.595c0,-0.8394 -0.672,-1.5949 -1.595,-1.5949Z"></path></g><path fill="#DBDFE9" d="M297.033,46.7562l-0.336,-0.5876c-0.084,-0.0839 -0.084,-0.1679 -0.168,-0.2518c-1.427,-2.3504 -1.931,-5.2045 -1.259,-7.8906c0.923,-3.6935 0.42,-7.7228 -1.847,-11.2484c-4.113,-6.3796 -12.507,-8.4782 -19.139,-4.9526c-7.387,3.9453 -9.737,13.263 -5.456,20.2302c2.015,3.3577 5.288,5.5402 8.814,6.3797c2.854,0.7554 5.372,2.4343 6.883,4.8686c0,0 0,0.084 0.084,0.084l0.336,0.5876"></path><path d="M296.949,46.6726l0.336,0.5037c1.511,2.5182 1.343,5.6241 -0.336,7.8906c0.42,1.1752 0,2.6022 -1.091,3.2738c-1.091,0.6715 -2.602,0.4197 -3.442,-0.5037c-2.77,0.5037 -5.624,-0.7555 -7.219,-3.2738l-0.336,-0.5036" fill="#989FB0"></path><path fill="none" stroke="#D6DDE8" stroke-linecap="round" stroke-linejoin="round" stroke-width="2" d="M289.394,49.9464l-14.942,-10.9125l4.785,-0.7555l1.847,-3.8614l4.281,0.084l2.854,-3.9453l3.022,18.2995"></path><g fill="#989FB0" fill-rule="evenodd"><path d="M288.448,29.5821c0.393,0.0925 0.692,0.4122 0.757,0.8104l3.022,18.2996c0.09,0.5449 -0.278,1.0595 -0.823,1.1495c-0.545,0.09 -1.06,-0.2788 -1.15,-0.8237l-2.631,-15.9327l-1.448,2.0017c-0.192,0.2655 -0.502,0.4201 -0.83,0.4137l-3.637,-0.0713l-1.569,3.2804c-0.142,0.2969 -0.421,0.5049 -0.746,0.5563l-2.407,0.38l12.998,9.4927c0.446,0.3257 0.543,0.9513 0.218,1.3973c-0.326,0.446 -0.952,0.5435 -1.398,0.2178l-14.942,-10.9126c-0.326,-0.2383 -0.477,-0.6496 -0.382,-1.0424c0.095,-0.3928 0.417,-0.6899 0.816,-0.7529l4.266,-0.6735l1.62,-3.387c0.169,-0.3538 0.529,-0.5761 0.921,-0.5684l3.758,0.0737l2.548,-3.5214c0.236,-0.327 0.646,-0.4797 1.039,-0.3872Z"></path><path d="M295.761,11.6783c0.505,0.2249 0.731,0.8161 0.506,1.3205l-2.77,6.2118c-0.225,0.5044 -0.816,0.731 -1.321,0.506c-0.504,-0.2249 -0.73,-0.8162 -0.506,-1.3206l2.771,-6.2117c0.224,-0.5044 0.816,-0.731 1.32,-0.506Z"></path><path d="M263.599,39.0167c0.102,0.5427 -0.255,1.0654 -0.798,1.1674l-12.508,2.3504c-0.543,0.102 -1.065,-0.2553 -1.167,-0.7981c-0.102,-0.5427 0.255,-1.0654 0.798,-1.1674l12.507,-2.3504c0.543,-0.102 1.066,0.2553 1.168,0.7981Z"></path><path d="M267.101,48.4302c0.512,0.2051 0.762,0.7871 0.557,1.2999l-3.022,7.5548c-0.205,0.5128 -0.787,0.7622 -1.3,0.5571c-0.513,-0.2051 -0.762,-0.7871 -0.557,-1.2999l3.022,-7.5548c0.205,-0.5128 0.787,-0.7622 1.3,-0.5571Z"></path><path d="M311.063,23.5701c0.195,0.5166 -0.065,1.0938 -0.582,1.2891l-9.989,3.7774c-0.516,0.1954 -1.094,-0.065 -1.289,-0.5816c-0.195,-0.5166 0.065,-1.0937 0.582,-1.2891l9.989,-3.7774c0.517,-0.1953 1.094,0.0651 1.289,0.5816Z"></path></g><path fill="#DBDFE9" d="M342.614,87.888l-13.011,12.0038l3.357,3.3572c0.336,0.336 0.588,0.756 0.84,1.176c0,0 0,0.084 0.084,0.168c0.503,1.343 0.168,2.854 -0.84,3.945l-1.091,1.091l-3.861,3.862l-6.128,6.127l-17.544,-17.544l9.989,-9.9889l1.091,-1.0912c1.427,-1.4271 3.778,-1.4271 5.289,0l3.357,3.3577l12.004,-13.0112c1.763,-1.9307 4.869,-2.0146 6.716,-0.1679c1.762,1.9307 1.679,4.9527 -0.252,6.7155Z"></path><g fill-rule="evenodd" fill="#A4ADBF"><path opacity="0.30" d="M315.118,91.2957l17.46,17.5443l-1.418,1.411l-17.46,-17.5445l1.418,-1.4108Z"></path><path opacity="0.30" d="M331.414,98.2485l-5.792,-5.7921l1.414,-1.4142l5.792,5.7921l-1.414,1.4142Z"></path></g><path fill="#CFD5E3" d="M340.928,84.9778c0.557,-0.5573 0.557,-1.4608 0,-2.0181c-0.558,-0.5573 -1.461,-0.5573 -2.019,0c-0.557,0.5573 -0.557,1.4608 0,2.0181c0.558,0.5573 1.461,0.5573 2.019,0Z"></path><g fill-rule="evenodd" fill="#A4ADBF"><path opacity="0.30" d="M314.277,101.271l-5.121,5.12l-1.414,-1.414l5.121,-5.1206l1.414,1.4146Z"></path><path opacity="0.30" d="M317.97,104.88l-5.204,5.204l-1.414,-1.414l5.204,-5.204l1.414,1.414Z"></path></g><path fill="url(#D)" d="M318.69,145.893c1.206,0 2.183,-0.978 2.183,-2.183c0,-1.205 -0.977,-2.182 -2.183,-2.182c-1.205,0 -2.182,0.977 -2.182,2.182c0,1.205 0.977,2.183 2.182,2.183Z"></path><path d="M333.8,104.593c0,-0.084 0,-0.084 -0.084,-0.168c-0.252,-0.42 -0.839,0.084 -1.847,1.595c-0.419,0.671 -1.259,1.007 -2.266,1.259c-0.588,0.168 -1.343,0.336 -2.015,0.42c-0.671,-0.252 -1.427,-0.168 -1.93,0.251c-0.252,0.168 -0.504,0.336 -0.672,0.504c-1.091,0.756 -2.35,1.259 -4.365,0.84c-1.931,-0.42 -4.113,2.266 -4.113,4.448v20.734c0,2.854 4.365,2.938 4.365,-0.084v-12.675c0,-2.686 4.365,-3.274 4.365,0.504c0,2.854 4.365,2.938 4.365,-0.168v-9.318c0,-0.336 0,-0.587 0,-0.839l2.266,-2.267l1.092,-1.091c1.007,-1.091 1.343,-2.686 0.839,-3.945Z" fill="url(#E)"></path><path fill="url(#F)" d="M202.429,66.3151c-1.091,1.0073 -2.938,1.0073 -4.029,0c-0.084,-0.084 -0.168,-0.1679 -0.252,-0.2519c-0.252,-0.3357 -0.419,-0.7555 -0.587,-1.0912c-0.252,-0.9234 0,-1.9307 0.671,-2.7701c0.588,-0.6716 1.259,-1.2592 1.847,-1.9307c0.168,-0.1679 0.42,-0.1679 0.504,0c0.755,0.6715 1.427,1.3431 2.014,2.0146c0.084,0.0839 0.084,0.0839 0.084,0.1679c0.168,0.2518 0.336,0.4197 0.42,0.6715c0.587,1.0073 0.336,2.3504 -0.672,3.1899Z"></path><path opacity="0.30" d="M200.667,65.4756c-0.252,0 -0.42,0 -0.672,-0.0839c-0.42,-0.1679 -0.588,-0.2519 -0.755,-0.5877c-0.084,-0.1678 -0.168,-0.3357 -0.252,-0.5036c0,-0.0839 0,-0.0839 0,-0.1679c-0.084,-0.2518 -0.252,-0.4197 -0.504,-0.3358c-0.252,0.084 -0.42,0.2519 -0.336,0.5037c0,0.0839 0,0.1679 0.084,0.2518c0.084,0.3358 0.252,0.6716 0.504,0.9234c0.084,0.0839 0.168,0.1679 0.252,0.2518c0.419,0.4197 1.091,0.6716 1.679,0.6716c0.084,0 0.167,0 0.251,0c0.252,0 0.42,-0.2519 0.42,-0.5037c-0.252,-0.2518 -0.42,-0.4197 -0.671,-0.4197Z" fill="#F1F3FA"></path><path fill="#DBDFE9" d="M217.035,41.8037l-5.959,6.1278l-6.632,6.7994c-0.168,0.1679 -0.42,0.3358 -0.672,0.3358l-2.77,0.7555c-0.671,0.1678 -1.259,-0.4198 -1.007,-1.0074l0.756,-2.7701c0.083,-0.2518 0.167,-0.4197 0.335,-0.6715l3.526,-3.6935l9.066,-9.3176"></path><path d="M211.076,48.0154l-6.632,6.7994c-0.168,0.1679 -0.42,0.3357 -0.672,0.3357l-2.77,0.7555c-0.671,0.1679 -1.259,-0.4197 -1.007,-1.0073l0.756,-2.7701c0.083,-0.2518 0.167,-0.4197 0.335,-0.6715l3.526,-3.6935c0.252,-0.084 0.588,-0.1679 0.839,-0.1679l5.625,0.4197Z" fill="url(#G)"></path><path fill="#DBDFE9" d="M218.126,42.895l-5.456,-5.4563c-0.587,-0.5876 -0.587,-1.427 0,-2.0146c0.588,-0.5876 1.427,-0.5876 2.015,0l5.456,5.4563c0.588,0.5876 0.588,1.427 0,2.0146c-0.587,0.5876 -1.427,0.5876 -2.015,0Z"></path><path d="M219.218,40.041l-3.778,-3.7774l3.778,-3.7774c1.091,-1.0913 2.77,-1.0913 3.777,0c1.092,1.0912 1.092,2.7701 0,3.7774l-3.777,3.7774Z" fill="#DBDFE9"></path><path fill="url(#H)" d="M238.571,199.212c1.498,-7.989 3.662,-15.645 5.992,-23.468c2.33,-7.656 4.827,-15.479 7.823,-22.968l1.165,0.333c-1.332,7.989 -3.163,15.811 -5.16,23.634c-1.997,7.822 -4.161,15.645 -6.99,23.135l-2.83,-0.666Z"></path><path d="M234.244,204.372l3.236,-6.716h5.62l2.896,6.716h-11.752Z" fill="url(#I)"></path></svg>