<svg width="128" height="128" viewBox="0 0 128 128" fill="none" xmlns="http://www.w3.org/2000/svg">
<path d="M79.5517 21.5863H28.6552C25.532 21.5863 23.0001 24.1182 23.0001 27.2414V100.759C23.0001 103.882 25.532 106.414 28.6552 106.414H79.5517C82.675 106.414 85.2069 103.882 85.2069 100.759V27.2414C85.2069 24.1182 82.675 21.5863 79.5517 21.5863Z" fill="white"/>
<path d="M31.4828 56.931L76.7241 56.931V54.1035L31.4828 54.1035V56.931Z" fill="#D4D9DD"/>
<path d="M31.4828 62.5862L76.7241 62.5862V59.7586L31.4828 59.7586V62.5862Z" fill="#D4D9DD"/>
<path d="M31.4828 68.2414H76.7241V65.4138H31.4828V68.2414Z" fill="#D4D9DD"/>
<path d="M31.4827 73.8965H54.1034V71.069H31.4827V73.8965Z" fill="#D4D9DD"/>
<path d="M31.4828 34.3104H52.6896V31.4828L31.4828 31.4828V34.3104Z" fill="#D4D9DD"/>
<path d="M55.5172 34.3104H76.7241V31.4828L55.5172 31.4828V34.3104Z" fill="#D4D9DD"/>
<path d="M31.4828 39.9656H52.6896V37.138H31.4828V39.9656Z" fill="#D4D9DD"/>
<path d="M55.5172 39.9656H76.7241V37.138H55.5172V39.9656Z" fill="#D4D9DD"/>
<path d="M31.4828 45.6207H52.6896V42.7931H31.4828V45.6207Z" fill="#D4D9DD"/>
<path d="M55.5172 45.6207H76.7241V42.7931H55.5172V45.6207Z" fill="#D4D9DD"/>
<path d="M31.4828 51.2759H52.6896V48.4483H31.4828V51.2759Z" fill="#D4D9DD"/>
<path d="M55.5172 51.2759H76.7241V48.4483H55.5172V51.2759Z" fill="#D4D9DD"/>
<path d="M34.2115 92.2759C34.0615 92.2745 33.9129 92.2458 33.7732 92.191C33.4286 92.0551 33.1511 91.7894 33.0004 91.4509C32.8497 91.1125 32.8378 90.7284 32.9674 90.3814C33.0946 89.9996 36.1343 80.9514 42.0863 80.9514C42.9199 80.8811 43.7567 81.0418 44.505 81.4159C45.2532 81.79 45.8838 82.363 46.3277 83.0721C46.4875 83.346 46.62 83.6348 46.7236 83.9345C47.4298 83.0598 48.3121 82.3435 49.3132 81.832C50.3142 81.3205 51.4117 81.0253 52.5343 80.9655C53.1205 80.9301 53.7064 81.0407 54.2394 81.2874C54.7724 81.5342 55.2358 81.9093 55.588 82.3793C56.3839 83.5684 56.8163 84.9637 56.8322 86.3945C58.2627 84.7334 60.0265 83.3917 62.0091 82.4564C63.9917 81.5212 66.1488 81.0132 68.3404 80.9655C68.7154 80.9655 69.075 81.1145 69.3401 81.3796C69.6053 81.6448 69.7542 82.0044 69.7542 82.3793C69.7542 82.7543 69.6053 83.1139 69.3401 83.379C69.075 83.6442 68.7154 83.7931 68.3404 83.7931C60.508 83.7931 56.3939 91.4841 56.3515 91.5548C56.2129 91.8448 55.9696 92.0716 55.6707 92.1897C55.3717 92.3077 55.0391 92.3082 54.7398 92.191C54.4363 92.0605 54.1882 91.8278 54.0384 91.5334C53.8886 91.239 53.8466 90.9014 53.9198 90.5793C54.3156 88.6141 54.457 85.32 53.5805 84.189C53.4778 84.0528 53.3422 83.9449 53.1864 83.8757C53.0306 83.8064 52.8596 83.778 52.6898 83.7931C49.3956 83.9203 47.5436 87.1721 46.667 89.3352C46.4813 90.0577 46.2451 90.7664 45.9601 91.4559C45.8395 91.7674 45.6023 92.0198 45.2989 92.1597C44.9955 92.2995 44.6495 92.3158 44.3343 92.2052C44.0138 92.0783 43.7508 91.8387 43.5946 91.5315C43.4384 91.2243 43.3997 90.8706 43.486 90.5369C43.6641 89.8109 43.8908 89.0976 44.1646 88.4021C44.5912 87.1751 44.5912 85.8401 44.1646 84.6131C44.0374 84.4152 43.6839 83.7931 42.1429 83.7931C38.0995 83.7931 35.5264 91.2579 35.4981 91.3286C35.4153 91.6046 35.2451 91.8463 35.013 92.0171C34.781 92.188 34.4997 92.2788 34.2115 92.2759Z" fill="#9CBCE3"/>
<path d="M85.2069 59.9848C80.5286 60.6983 76.2608 63.0642 73.177 66.6539C70.0933 70.2436 68.3977 74.8193 68.3977 79.5517C68.3977 84.2841 70.0933 88.8598 73.177 92.4495C76.2608 96.0391 80.5286 98.4051 85.2069 99.1186V59.9848Z" fill="#ABB1B6"/>
<path d="M85.2069 55.5172C81.2922 55.5172 77.4654 56.6781 74.2105 58.853C70.9555 61.0279 68.4186 64.1191 66.9205 67.7358C65.4224 71.3525 65.0304 75.3323 65.7941 79.1718C66.5579 83.0112 68.443 86.538 71.2111 89.3061C73.9792 92.0742 77.506 93.9593 81.3455 94.7231C85.1849 95.4868 89.1647 95.0948 92.7814 93.5967C96.3981 92.0986 99.4893 89.5617 101.664 86.3068C103.839 83.0518 105 79.225 105 75.3103C105 70.0609 102.915 65.0264 99.2027 61.3145C95.4908 57.6026 90.4563 55.5172 85.2069 55.5172Z" fill="#499F62"/>
<path d="M82.2096 85.3058L72.2141 75.3103L76.2151 71.3093L82.2096 77.3037L94.1986 65.3148L98.1996 69.3158L82.2096 85.3058Z" fill="white"/>
</svg>
