<svg width="128" height="128" viewBox="0 0 128 128" fill="none" xmlns="http://www.w3.org/2000/svg">
<path d="M69.9583 64L79.1686 74.5277L91.5534 82.4423L93.713 64.0648L91.5534 46.0976L78.9311 53.0512L69.9583 64Z" fill="#00832D"/>
<path d="M16.5103 80.7363V96.3928C16.5103 99.9722 19.4094 102.871 22.9888 102.871H38.6453L41.8846 91.0372L38.6453 80.7363L27.9017 77.497L16.5103 80.7363Z" fill="#0066DA"/>
<path d="M38.6453 25.1287L16.5103 47.2637L27.9017 50.503L38.6453 47.2637L41.8306 37.1032L38.6453 25.1287Z" fill="#E94235"/>
<path d="M38.6453 47.2637H16.5103V80.7363H38.6453V47.2637Z" fill="#2684FC"/>
<path d="M105.698 34.501L91.5535 46.0976V82.4423L105.763 94.0929C107.89 95.7557 111 94.2387 111 91.5339V37.006C111 34.2688 107.82 32.768 105.698 34.501ZM69.9583 64V80.7363H38.6453V102.871H85.0749C88.6543 102.871 91.5535 99.9722 91.5535 96.3928V82.4423L69.9583 64Z" fill="#00AC47"/>
<path d="M85.0749 25.1287H38.6453V47.2637H69.9583V64L91.5535 46.1084V31.6072C91.5535 28.0278 88.6543 25.1287 85.0749 25.1287Z" fill="#FFBA00"/>
</svg>
