<svg width="128" height="128" viewBox="0 0 128 128" fill="none" xmlns="http://www.w3.org/2000/svg">
<g clip-path="url(#clip0_55_5659)">
<path d="M93.0999 44.7C93.0999 60.5 86.6999 102.3 64.4999 102.3C41.8999 102.3 35.8999 60.5 35.8999 44.7C35.8999 28.9 48.6999 16.1 64.4999 16.1C80.2999 16.1 93.0999 28.9 93.0999 44.7Z" fill="#343D47"/>
<mask id="mask0_55_5659" style="mask-type:luminance" maskUnits="userSpaceOnUse" x="35" y="16" width="59" height="87">
<path d="M93.0999 44.7C93.0999 60.5 86.6999 102.3 64.4999 102.3C41.8999 102.3 35.8999 60.5 35.8999 44.7C35.8999 28.9 48.6999 16.1 64.4999 16.1C80.2999 16.1 93.0999 28.9 93.0999 44.7Z" fill="white"/>
</mask>
<g mask="url(#mask0_55_5659)">
<path d="M81.3 36.1L93.8 48.5L91.9 64.9L85.2 86.9L74.5 73.7L75.9 46.9L81.3 36.1Z" fill="#202831"/>
</g>
<path d="M99.5 104.9H29.5C27.4 104.9 25.7 103.2 25.7 101.1V99.4C25.7 87.3 35.4999 77.5 47.5999 77.5H81.4C93.5 77.5 103.3 87.3 103.3 99.4V101.1C103.3 103.2 101.6 104.9 99.5 104.9Z" fill="#B1216E"/>
<mask id="mask1_55_5659" style="mask-type:luminance" maskUnits="userSpaceOnUse" x="25" y="77" width="79" height="28">
<path d="M99.5 104.9H29.5C27.4 104.9 25.7 103.2 25.7 101.1V99.4C25.7 87.3 35.4999 77.5 47.5999 77.5H81.4C93.5 77.5 103.3 87.3 103.3 99.4V101.1C103.3 103.2 101.6 104.9 99.5 104.9Z" fill="white"/>
</mask>
<g mask="url(#mask1_55_5659)">
<path d="M36.5 70.4V106.2" stroke="#E94274" stroke-width="6" stroke-miterlimit="10"/>
<path d="M47.7 70.4V106.2" stroke="#E94274" stroke-width="6" stroke-miterlimit="10"/>
<path d="M58.8999 70.4V106.2" stroke="#E94274" stroke-width="6" stroke-miterlimit="10"/>
<path d="M70.1001 70.4V106.2" stroke="#E94274" stroke-width="6" stroke-miterlimit="10"/>
<path d="M81.3 70.4V106.2" stroke="#E94274" stroke-width="6" stroke-miterlimit="10"/>
<path d="M92.5 70.4V106.2" stroke="#E94274" stroke-width="6" stroke-miterlimit="10"/>
</g>
<g opacity="0.4">
<path d="M81.4 77.5H78.2C90.3 77.5 100.1 87.3 100.1 99.4V101.1C100.1 103.2 98.4 104.9 96.3 104.9H99.5C101.6 104.9 103.3 103.2 103.3 101.1V99.4C103.3 87.3 93.5 77.5 81.4 77.5Z" fill="#8E0C51"/>
</g>
<g opacity="0.5">
<path d="M47.5999 77.5H50.7999C38.6999 77.5 28.9 87.3 28.9 99.4V101.1C28.9 103.2 30.6 104.9 32.7 104.9H29.5C27.4 104.9 25.7 103.2 25.7 101.1V99.4C25.7 87.3 35.4999 77.5 47.5999 77.5Z" fill="#F2809F"/>
</g>
<path d="M77.6 69.2H51.5V81.9H77.6V69.2Z" fill="#EEAE82"/>
<path d="M64.4999 81.9L56.8999 104.9H62.4999H66.4999H72.0999L64.4999 81.9Z" fill="#FFCD00"/>
<path d="M65.8 73.7H63.3C53.2 73.7 45 68 45 57.9V45.6C45 35.5 53.2 27.3 63.3 27.3H65.8C75.9 27.3 84.1 35.5 84.1 45.6V57.9C84 68 75.8 73.7 65.8 73.7Z" fill="#FDE3CB"/>
<path d="M71.5 28.3C77 31.6 80.7 37.6 80.7 44.5V59C80.7 65.9 77 69.7 71.5 73C79.1 71.2 84 66 84 57.9V45.6C84 37.5 78.8 30.7 71.5 28.3Z" fill="#FCCDAC"/>
<path d="M57.5 28.3C52 31.6 48.3 37.6 48.3 44.5V59C48.3 65.9 52 69.7 57.5 73C50 71.2 45 66 45 57.9V45.6C45 37.5 50.2 30.7 57.5 28.3Z" fill="#FDEFE7"/>
<g opacity="0.3">
<mask id="mask2_55_5659" style="mask-type:luminance" maskUnits="userSpaceOnUse" x="45" y="27" width="40" height="47">
<path d="M65.8 73.7H63.3C53.2 73.7 45 68 45 57.9V45.6C45 35.5 53.2 27.3 63.3 27.3H65.8C75.9 27.3 84.1 35.5 84.1 45.6V57.9C84 68 75.8 73.7 65.8 73.7Z" fill="white"/>
</mask>
<g mask="url(#mask2_55_5659)">
<path opacity="0.86" d="M44.8001 48.2L72.9001 76.2L97.8001 51.4L80.5001 34H51.0001L44.1001 48.4L44.8001 48.2Z" fill="#E69E65"/>
</g>
</g>
<path d="M78.8001 25.1C75.7001 20.9 72.3 23.6 69.5 20.2C69.3 20.4 65.1001 19.8 64.9001 20C63.1001 21.8 62.1 23.4 61.6 25C59.5 23.4 57.1001 22.4 54.7001 22C54.6001 21.9 54.6 21.8 54.5 21.7C54.4 21.8 54.2 21.8 54.1 21.9C54 21.9 54.0001 21.9 53.9001 21.9V22C49.6001 23.7 43.3001 27.4 42.2001 34.5C41.4001 39.4 40.8 44.5 40.3 48.7C40.6 48.7 40.9001 48.7 41.2001 48.7C47.1001 48.7 52.3 45.6 55.3 41C57.9 44.5 60.6 48 63 51C63.2 50.8 63.4 50.6 63.6 50.4C66.9 47.1 68.6 42.7 68.5 38.3C68.7 38.5 68.8 38.6 69 38.8C71.9 41.7 75.4 43.3 79.2 43.8C81.1 39.4 83.5001 31.5 78.8001 25.1Z" fill="#343D47"/>
<mask id="mask3_55_5659" style="mask-type:luminance" maskUnits="userSpaceOnUse" x="56" y="81" width="17" height="24">
<path d="M64.4999 81.9L56.8999 104.9H62.4999H66.4999H72.0999L64.4999 81.9Z" fill="white"/>
</mask>
<g mask="url(#mask3_55_5659)">
<path d="M61.7 90.2L71.8 100.3L69.4 91.2L64.5999 87.4L61.7 90.2Z" fill="#E2961D"/>
</g>
<path d="M64.4001 81.9L70.8001 86.8L66.7 91C65.6 92.1 63.7 92.1 62.5 91L58.3 86.8L64.4001 81.9Z" fill="#FBB714"/>
<path d="M64.5 81.9L77.9 73L82 77.5L75.7 89.8C75.1 91 73.5 91.2 72.6 90.3L64.5 81.9Z" fill="#FFF1E5"/>
<path d="M64.5 81.9L51.1 73L47 77.4L53.3 89.7C53.9 90.9 55.5 91.1 56.4 90.2L64.5 81.9Z" fill="#FFF1E5"/>
<path d="M69.0999 67.6C72.0823 67.6 74.5 65.9882 74.5 64C74.5 62.0118 72.0823 60.4 69.0999 60.4C66.1176 60.4 63.7 62.0118 63.7 64C63.7 65.9882 66.1176 67.6 69.0999 67.6Z" fill="#202831"/>
<path d="M74.5 65C73.9 65 73.5 64.6 73.5 64C73.5 63.4 73.9 63 74.5 63C77.2 63 79.4 62.2 81 60.5C84.4 57 84.2 51 84.2 51C84.2 50.4 84.6 50 85.2 50C85.7 50 86.2 50.4 86.2 51C86.2 51.3 86.4 57.9 82.4 62C80.5 64 77.8 65 74.5 65Z" fill="#202831"/>
</g>
<defs>
<clipPath id="clip0_55_5659">
<rect width="128" height="128" rx="8" fill="white"/>
</clipPath>
</defs>
</svg>
