<svg width="128" height="128" viewBox="0 0 128 128" fill="none" xmlns="http://www.w3.org/2000/svg">
<g clip-path="url(#clip0_70_5599)">
<path d="M101 69C101 74.5 96.5 79 91 79H46C40.5 79 36 74.5 36 69V39C36 33.5 40.5 29 46 29H91C96.5 29 101 33.5 101 39V69Z" fill="#495C6D"/>
<path d="M77.7 44H31.3C26.2 44 22 48.2 22 53.3V84.7C22 89.8 26.2 94 31.3 94H44V104.2L54.2 94H77.6C82.7 94 86.9 89.8 86.9 84.7V53.3C87 48.2 82.8 44 77.7 44Z" fill="#F0B543"/>
<path d="M71 73C73.2091 73 75 71.2091 75 69C75 66.7909 73.2091 65 71 65C68.7909 65 67 66.7909 67 69C67 71.2091 68.7909 73 71 73Z" fill="#172135"/>
<path d="M55 73C57.2091 73 59 71.2091 59 69C59 66.7909 57.2091 65 55 65C52.7909 65 51 66.7909 51 69C51 71.2091 52.7909 73 55 73Z" fill="#172135"/>
<path d="M39 73C41.2091 73 43 71.2091 43 69C43 66.7909 41.2091 65 39 65C36.7909 65 35 66.7909 35 69C35 71.2091 36.7909 73 39 73Z" fill="#172135"/>
</g>
<defs>
<clipPath id="clip0_70_5599">
<rect width="128" height="128" rx="16" fill="white"/>
</clipPath>
</defs>
</svg>
