<svg width="128" height="128" viewBox="0 0 128 128" fill="none" xmlns="http://www.w3.org/2000/svg">
<g clip-path="url(#clip0_70_5768)">
<g clip-path="url(#clip1_70_5768)">
<path d="M97.5 33H63V30C63 27.8 61.2 26 59 26H33C30.8 26 29 27.8 29 30V36.5V40V96.7C29 98.6 30.6 100 32.5 100H97.5C99.4 100 101 98.6 101 96.7V36.5C101 34.6 99.4 33 97.5 33Z" fill="#BF8D2C"/>
<path d="M95.6 100H34.4C33.6 100 32.8 99.3 32.7 98.5L26.2 47.1C26.1 46 26.8 45 27.8 45H102.2C103.2 45 103.9 46 103.8 47.1L97.3 98.5C97.2 99.3 96.4 100 95.6 100Z" fill="white"/>
<path d="M101.6 98.2C101.3 99.8 99.6 101 97.9 101H32.2C30.5 101 28.8 99.8 28.5 98.2L19.2 54.5C18.6 52 20 50 22.2 50H107.7C110 50 111.4 52 110.8 54.5L101.6 98.2Z" fill="#F0B543"/>
<path d="M61.0464 86.5373L49.7778 75.2687L54.2884 70.758L61.0464 77.516L74.5624 64L79.0731 68.5106L61.0464 86.5373Z" fill="#BF8D2C"/>
<path d="M99 44V42.05C99 41.3 98.2563 41 97.1938 41H32.8063C31.7438 41 31 41.375 31 42.05V44H99Z" fill="white"/>
<path d="M97 40V38.05C97 37.3 96.3 37 95.3 37H34.7C33.7 37 33 37.375 33 38.05V40H97Z" fill="white"/>
</g>
</g>
<defs>
<clipPath id="clip0_70_5768">
<rect width="128" height="128" rx="16" fill="white"/>
</clipPath>
<clipPath id="clip1_70_5768">
<rect width="128" height="128" fill="white"/>
</clipPath>
</defs>
</svg>
