<svg width="128" height="128" viewBox="0 0 128 128" fill="none" xmlns="http://www.w3.org/2000/svg">
<path d="M107.093 69.3702C107.093 75.7186 101.899 80.9128 95.5505 80.9128H43.609C37.2606 80.9128 32.0665 75.7186 32.0665 69.3702V34.7426C32.0665 28.3941 37.2606 23.2 43.609 23.2H95.5505C101.899 23.2 107.093 28.3941 107.093 34.7426V69.3702Z" fill="#495C6D"/>
<path d="M80.1989 40.5138H26.6415C20.7548 40.5138 15.9069 45.3617 15.9069 51.2484V87.492C15.9069 93.3787 20.7548 98.2266 26.6415 98.2266H41.3005V110L53.0739 98.2266H80.0835C85.9702 98.2266 90.8181 93.3787 90.8181 87.492V51.2484C90.9335 45.3617 86.0856 40.5138 80.1989 40.5138Z" fill="#F0B543"/>
<path d="M72.4654 73.9872C75.0153 73.9872 77.0824 71.9201 77.0824 69.3702C77.0824 66.8203 75.0153 64.7532 72.4654 64.7532C69.9155 64.7532 67.8484 66.8203 67.8484 69.3702C67.8484 71.9201 69.9155 73.9872 72.4654 73.9872Z" fill="#172135"/>
<path d="M53.9973 73.9872C56.5472 73.9872 58.6144 71.9201 58.6144 69.3702C58.6144 66.8203 56.5472 64.7532 53.9973 64.7532C51.4474 64.7532 49.3803 66.8203 49.3803 69.3702C49.3803 71.9201 51.4474 73.9872 53.9973 73.9872Z" fill="#172135"/>
<path d="M35.5293 73.9872C38.0792 73.9872 40.1463 71.9201 40.1463 69.3702C40.1463 66.8203 38.0792 64.7532 35.5293 64.7532C32.9793 64.7532 30.9122 66.8203 30.9122 69.3702C30.9122 71.9201 32.9793 73.9872 35.5293 73.9872Z" fill="#172135"/>
</svg>
