<svg width="128" height="128" viewBox="0 0 128 128" fill="none" xmlns="http://www.w3.org/2000/svg">
<path d="M94.8731 112.407H29.5804C25.8681 112.407 22.8109 109.349 22.8109 105.637V34.1207C22.8109 30.4084 25.8681 27.3512 29.5804 27.3512H94.8731C98.5854 27.3512 101.643 30.4084 101.643 34.1207V105.637C101.643 109.349 98.5854 112.407 94.8731 112.407Z" fill="#495C6D"/>
<path d="M92.1434 105.855H32.3099C31.1089 105.855 30.1262 104.873 30.1262 103.672V36.086C30.1262 34.885 31.1089 33.9023 32.3099 33.9023H92.1434C93.3445 33.9023 94.3271 34.885 94.3271 36.086V103.672C94.3271 104.873 93.3445 105.855 92.1434 105.855Z" fill="white"/>
<path d="M77.7309 24.0757H69.8696V18.6164C69.8696 16.7603 68.9961 15.0133 67.4675 13.9214C61.244 9.55403 54.5837 13.9214 54.5837 19.8174V24.1848H46.7223C45.0846 24.1848 43.6652 25.4951 43.6652 27.242V34.3391C43.6652 35.9768 44.9754 37.3963 46.7223 37.3963H77.8401C79.4779 37.3963 80.8973 36.086 80.8973 34.3391V27.242C80.7881 25.4951 79.4779 24.0757 77.7309 24.0757ZM58.7327 22.5471C55.7847 18.0705 60.5889 13.3755 65.0655 16.2143C65.2838 16.4327 65.5022 16.6511 65.7206 16.8694C68.6686 21.346 63.8644 26.041 59.3878 23.2022C59.1695 22.9838 58.9511 22.7654 58.7327 22.5471Z" fill="#E1DBCA"/>
<path d="M76.3115 27.3512H48.1417C47.4866 27.3512 46.9407 27.8971 46.9407 28.5523V32.7013C46.9407 33.3564 47.4866 33.9023 48.1417 33.9023H76.3115C76.9666 33.9023 77.5125 33.3564 77.5125 32.7013V28.5523C77.5125 27.8971 76.9666 27.3512 76.3115 27.3512Z" fill="#AAA884"/>
<path d="M45.303 66.3303H39.5162C38.7519 66.3303 38.0968 65.6752 38.0968 64.9109V59.1241C38.0968 58.3598 38.7519 57.7047 39.5162 57.7047H45.303C46.0673 57.7047 46.7224 58.3598 46.7224 59.1241V64.9109C46.7224 65.6752 46.0673 66.3303 45.303 66.3303Z" fill="#499F62"/>
<path d="M84.5006 66.3303H53.8195C52.9461 66.3303 52.1818 65.566 52.1818 64.6925V64.5834C52.1818 63.7099 52.9461 62.9456 53.8195 62.9456H84.5006C85.3741 62.9456 86.1384 63.7099 86.1384 64.5834V64.6925C86.0292 65.566 85.3741 66.3303 84.5006 66.3303Z" fill="#499F62"/>
<path d="M84.5006 60.8711H53.8195C52.9461 60.8711 52.1818 60.1068 52.1818 59.2333V59.1241C52.1818 58.2506 52.9461 57.4863 53.8195 57.4863H84.5006C85.3741 57.4863 86.1384 58.2506 86.1384 59.1241V59.2333C86.0292 60.1068 85.3741 60.8711 84.5006 60.8711Z" fill="#499F62"/>
<path opacity="0.6" d="M45.303 50.6077H39.5162C38.7519 50.6077 38.0968 49.9526 38.0968 49.1883V43.4014C38.0968 42.6372 38.7519 41.982 39.5162 41.982H45.303C46.0673 41.982 46.7224 42.6372 46.7224 43.4014V49.1883C46.7224 49.9526 46.0673 50.6077 45.303 50.6077Z" fill="#A1BFC8"/>
<path opacity="0.6" d="M45.303 82.053H39.5162C38.7519 82.053 38.0968 81.3979 38.0968 80.6336V74.8468C38.0968 74.0825 38.7519 73.4274 39.5162 73.4274H45.303C46.0673 73.4274 46.7224 74.0825 46.7224 74.8468V80.6336C46.7224 81.3979 46.0673 82.053 45.303 82.053Z" fill="#A1BFC8"/>
<path opacity="0.6" d="M45.303 97.7757H39.5162C38.7519 97.7757 38.0968 97.1206 38.0968 96.3563V90.5695C38.0968 89.8052 38.7519 89.1501 39.5162 89.1501H45.303C46.0673 89.1501 46.7224 89.8052 46.7224 90.5695V96.2471C46.7224 97.1206 46.0673 97.7757 45.303 97.7757Z" fill="#A1BFC8"/>
<path opacity="0.6" d="M84.5006 45.1484H53.8195C52.9461 45.1484 52.1818 44.3841 52.1818 43.5106V43.4014C52.1818 42.528 52.9461 41.7637 53.8195 41.7637H84.5006C85.3741 41.7637 86.1384 42.528 86.1384 43.4014V43.5106C86.0292 44.3841 85.3741 45.1484 84.5006 45.1484Z" fill="#A1BFC8"/>
<path opacity="0.6" d="M84.5006 50.6077H53.8195C52.9461 50.6077 52.1818 49.8434 52.1818 48.9699V48.8607C52.1818 47.9872 52.9461 47.2229 53.8195 47.2229H84.5006C85.3741 47.2229 86.1384 47.9872 86.1384 48.8607V48.9699C86.0292 49.8434 85.3741 50.6077 84.5006 50.6077Z" fill="#A1BFC8"/>
<path opacity="0.6" d="M84.5006 76.5938H53.8195C52.9461 76.5938 52.1818 75.8295 52.1818 74.956V74.8468C52.1818 73.9733 52.9461 73.209 53.8195 73.209H84.5006C85.3741 73.209 86.1384 73.9733 86.1384 74.8468V74.956C86.0292 75.8295 85.3741 76.5938 84.5006 76.5938Z" fill="#A1BFC8"/>
<path opacity="0.6" d="M84.5006 82.053H53.8195C52.9461 82.053 52.1818 81.2887 52.1818 80.4152V80.3061C52.1818 79.4326 52.9461 78.6683 53.8195 78.6683H84.5006C85.3741 78.6683 86.1384 79.4326 86.1384 80.3061V80.4152C86.0292 81.2887 85.3741 82.053 84.5006 82.053Z" fill="#A1BFC8"/>
<path opacity="0.6" d="M84.5006 97.7757H53.8195C52.9461 97.7757 52.1818 97.0114 52.1818 96.1379V96.0287C52.1818 95.1552 52.9461 94.3909 53.8195 94.3909H84.5006C85.3741 94.3909 86.1384 95.1552 86.1384 96.0287V96.1379C86.0292 97.0114 85.3741 97.7757 84.5006 97.7757Z" fill="#A1BFC8"/>
<path opacity="0.6" d="M84.5006 92.3164H53.8195C52.9461 92.3164 52.1818 91.5521 52.1818 90.6786V90.5695C52.1818 89.696 52.9461 88.9317 53.8195 88.9317H84.5006C85.3741 88.9317 86.1384 89.696 86.1384 90.5695V90.6786C86.0292 91.5521 85.3741 92.3164 84.5006 92.3164Z" fill="#A1BFC8"/>
<path d="M99.6772 69.1692L103.608 73.0998C105.464 74.956 105.464 78.0132 103.608 79.8693L100.223 83.254L89.5229 72.5539L92.9077 69.1692C94.7638 67.313 97.821 67.313 99.6772 69.1692Z" fill="#F54F33"/>
<path d="M72.3693 89.7603L83.178 100.569L100.626 83.1207L89.8176 72.312L72.3693 89.7603Z" fill="#A1BFC8"/>
<path d="M92.7838 83.6029L96.4125 87.2316L100.582 83.0625L96.9529 79.4339L92.7838 83.6029Z" fill="#81A1A6"/>
<path d="M85.5981 76.4454L89.2267 80.0741L93.3957 75.905L89.7671 72.2764L85.5981 76.4454Z" fill="#C9D8E0"/>
<path d="M68.7778 96.0287L76.8575 104.108C77.6218 104.873 78.8229 104.873 79.5872 104.108L96.5109 87.1847L85.7015 76.3754L68.7778 93.2991C68.0135 94.0634 68.0135 95.2644 68.7778 96.0287Z" fill="#F0B543"/>
<path d="M74.6736 101.925L76.8573 104.108C77.6216 104.873 78.8226 104.873 79.5869 104.108L96.5106 87.1847L92.7983 83.6908L74.6736 101.925Z" fill="#C9942F"/>
<path d="M68.7778 96.0287L70.9615 98.2124L89.1954 79.9785L85.5923 76.3754L68.7778 93.2991C68.0135 94.0634 68.0135 95.2644 68.7778 96.0287Z" fill="#FFD454"/>
<path d="M68.6685 95.9195L71.0706 98.3216C72.3808 97.0114 74.237 96.793 75.2196 97.7757C76.2023 98.7583 75.9839 100.614 74.6737 101.925L77.0758 104.327C77.6217 104.873 77.2942 106.074 76.4207 106.51L61.4623 113.935L58.951 111.533L66.3756 96.5746C66.9216 95.7012 68.1226 95.3736 68.6685 95.9195Z" fill="#F1D2AE"/>
<path d="M69.7604 92.4256C70.7431 93.4083 72.2716 97.0114 71.0706 98.3216L59.8245 112.406L58.951 111.533L66.8124 95.8103C67.2491 95.046 67.6859 94.2817 68.341 93.7358C68.4502 93.6266 68.5594 93.5175 68.6685 93.4083C68.9961 93.0807 69.4328 92.7532 69.7604 92.4256Z" fill="#FFE6CB"/>
<path d="M80.5698 103.126C79.5871 102.143 75.984 100.614 74.6738 101.816L60.5889 113.062L61.3532 113.826L77.0758 106.074C77.8401 105.637 78.6044 105.2 79.1504 104.545C79.2595 104.436 79.3687 104.327 79.4779 104.218C79.8055 103.89 80.133 103.562 80.5698 103.126Z" fill="#DFB98A"/>
<path d="M58.9511 111.533L61.244 113.826L57.2041 116.228C56.9858 116.446 56.6582 116.446 56.4398 116.337C56.2215 116.119 56.3306 115.9 56.549 115.573C57.4225 114.263 58.1868 112.952 58.9511 111.533Z" fill="#58505B"/>
</svg>
