<svg width="128" height="128" viewBox="0 0 128 128" fill="none" xmlns="http://www.w3.org/2000/svg">
<path d="M22 63.6627C21.9667 40.6853 40.856 22.0345 64.1937 22C87.5307 21.9679 106.477 40.5664 106.51 63.5432C106.544 86.5205 87.6531 105.173 64.3149 105.206C40.9778 105.24 22.0334 86.6395 22 63.6627Z" fill="#495C6D"/>
<path d="M64.2058 30.2152C64.0087 30.2164 63.7082 30.2273 63.468 30.2342C63.4634 30.2342 63.4588 30.2342 63.4542 30.2342C63.3984 30.2359 63.3421 30.2371 63.2961 30.2382V30.2417C44.9907 30.7456 30.3176 45.513 30.344 63.6512C30.371 81.8153 45.1263 96.5573 63.4674 96.9676V96.99C63.7139 96.9969 64.0558 96.99 64.3029 96.99C83.0307 96.9625 98.1911 81.9957 98.1641 63.5541C98.1377 45.117 82.9342 30.1905 64.2058 30.2152Z" fill="#F2F2F2"/>
<path d="M64.0983 30.2169C63.9086 30.2204 63.669 30.2284 63.4684 30.2342C63.4638 30.2342 63.4593 30.2342 63.4547 30.2342C63.3989 30.2359 63.3426 30.2371 63.2966 30.2382V30.2417C44.9912 30.7456 30.3181 45.513 30.3445 63.6512C30.3715 81.8153 45.1268 96.5573 63.4679 96.9676V96.99C63.6512 96.9952 63.8874 96.9929 64.0977 96.9912L64.0983 30.2169Z" fill="white"/>
<path d="M71.925 67.0859C72.545 67.4973 72.71 68.3248 72.2933 68.9362L72.2158 69.05C72.0152 69.3437 71.7043 69.5477 71.3509 69.6155C70.9981 69.6839 70.632 69.6109 70.3338 69.4132L46.2589 53.4552C45.6394 53.0437 45.475 52.2168 45.8905 51.6071L45.8922 51.6048C46.1135 51.2801 46.4565 51.0554 46.8461 50.9802C47.2352 50.9049 47.6397 50.9853 47.9684 51.2037L71.925 67.0859Z" fill="#495C6D"/>
<path d="M88.5617 58.1627C88.6162 58.1506 88.6766 58.1627 88.7226 58.1943C88.7703 58.2265 88.803 58.2753 88.8139 58.3294L88.8179 58.346C88.8404 58.4621 88.7651 58.573 88.6478 58.5954L54.1781 65.2746C54.1212 65.2855 54.0637 65.2728 54.0166 65.243C53.9689 65.2125 53.935 65.1625 53.9253 65.1085L53.9212 65.0895C53.8994 64.9752 53.9752 64.8637 54.0913 64.8407L88.5617 58.1627Z" fill="#EA7570"/>
<path d="M61.0946 71.3722C60.6751 71.9784 59.8379 72.1376 59.2195 71.7279L58.5374 71.2774C58.238 71.0791 58.0312 70.7717 57.9628 70.4228C57.8944 70.0735 57.9703 69.7126 58.1731 69.4195L77.8715 40.9451C78.291 40.3388 79.1283 40.1796 79.7466 40.5882L80.4287 41.0387C80.7281 41.237 80.9355 41.5444 81.0039 41.8932C81.0723 42.2426 80.9964 42.6035 80.7936 42.8977L61.0946 71.3722Z" fill="#495C6D"/>
<path d="M64.251 33.326C62.9641 33.3279 61.9224 34.3568 61.9243 35.6241C61.9262 36.8913 62.971 37.9171 64.2579 37.9151C65.5449 37.9132 66.5866 36.8843 66.5847 35.6171C66.5828 34.3498 65.538 33.3241 64.251 33.326Z" fill="#858585"/>
<path d="M32.7632 63.8782C32.7609 62.6105 33.8033 61.5801 35.0905 61.579C36.3772 61.5773 37.4219 62.6053 37.4242 63.8713C37.4259 65.139 36.384 66.167 35.0974 66.1681C33.8096 66.1722 32.7649 65.1435 32.7632 63.8782Z" fill="#858585"/>
<path d="M90.3408 63.7971C90.3391 62.5295 91.3821 61.5003 92.6682 61.4986C93.9565 61.4968 95.0007 62.5226 95.003 63.7903C95.0047 65.0568 93.9628 66.086 92.6745 66.0883C91.3884 66.0894 90.3431 65.0631 90.3408 63.7971Z" fill="#858585"/>
<path d="M61.9251 90.6775C61.9233 89.4127 62.9646 88.3818 64.2512 88.3806C65.5379 88.3789 66.5832 89.4047 66.5855 90.6706C66.5872 91.9383 65.5453 92.9675 64.2587 92.9692C62.9721 92.9704 61.9268 91.9446 61.9251 90.6775Z" fill="#858585"/>
<path d="M59.9597 63.6081C59.9568 61.2733 61.8767 59.381 64.2483 59.3764C66.6199 59.3723 68.545 61.2624 68.549 63.5966C68.5513 65.9325 66.632 67.8277 64.2604 67.8318C61.8888 67.8346 59.9637 65.9452 59.9597 63.6081Z" fill="#495C6D"/>
</svg>
